<svg width="1440" height="820" viewBox="0 0 1440 820" fill="none" xmlns="http://www.w3.org/2000/svg">
<g clip-path="url(#clip0)">
<rect width="1440" height="820" fill="#122230"/>
<g opacity="0.08">
<path d="M65.938 -13H263L99.062 835H-98L65.938 -13Z" fill="url(#paint0_linear)"/>
<path d="M342.02 0H550L376.98 850H169L342.02 0Z" fill="url(#paint1_linear)"/>
<path d="M620.938 0H818L654.062 835H457L620.938 0Z" fill="url(#paint2_linear)"/>
<path d="M903.199 0H1115L938.801 889H727L903.199 0Z" fill="url(#paint3_linear)"/>
<path d="M1188.65 0H1407L1225.35 959H1007L1188.65 0Z" fill="url(#paint4_linear)"/>
<path d="M343.938 0H541L377.062 835H180L343.938 0Z" fill="url(#paint5_linear)"/>
<path d="M1422.94 203H1620L1456.06 1023H1259L1422.94 203Z" fill="url(#paint6_linear)"/>
</g>
</g>
<defs>
<linearGradient id="paint0_linear" x1="82.5" y1="-13" x2="82.5" y2="835" gradientUnits="userSpaceOnUse">
<stop stop-color="#192D3E"/>
<stop offset="0.0001" stop-color="#235783"/>
<stop offset="0.755208" stop-color="#235783" stop-opacity="0.72"/>
</linearGradient>
<linearGradient id="paint1_linear" x1="359.5" y1="0" x2="359.5" y2="850" gradientUnits="userSpaceOnUse">
<stop stop-opacity="0"/>
<stop offset="1"/>
</linearGradient>
<linearGradient id="paint2_linear" x1="637.5" y1="0" x2="637.5" y2="835" gradientUnits="userSpaceOnUse">
<stop stop-color="#192D3E"/>
<stop offset="0.0001" stop-color="#235783"/>
<stop offset="0.755208" stop-color="#235783" stop-opacity="0.72"/>
</linearGradient>
<linearGradient id="paint3_linear" x1="921" y1="0" x2="921" y2="889" gradientUnits="userSpaceOnUse">
<stop stop-color="#192D3E"/>
<stop offset="0.0001" stop-color="#235783"/>
<stop offset="0.755208" stop-color="#235783" stop-opacity="0.72"/>
</linearGradient>
<linearGradient id="paint4_linear" x1="1207" y1="0" x2="1207" y2="959" gradientUnits="userSpaceOnUse">
<stop stop-color="#192D3E"/>
<stop offset="0.0001" stop-color="#235783"/>
<stop offset="0.755208" stop-color="#235783" stop-opacity="0.72"/>
</linearGradient>
<linearGradient id="paint5_linear" x1="360.5" y1="0" x2="360.5" y2="835" gradientUnits="userSpaceOnUse">
<stop stop-color="#192D3E"/>
<stop offset="0.0001" stop-color="#235783"/>
<stop offset="0.755208" stop-color="#235783" stop-opacity="0.72"/>
</linearGradient>
<linearGradient id="paint6_linear" x1="1439.5" y1="203" x2="1439.5" y2="1023" gradientUnits="userSpaceOnUse">
<stop stop-color="#192D3E"/>
<stop offset="0.0001" stop-color="#235783"/>
<stop offset="0.755208" stop-color="#235783" stop-opacity="0.72"/>
</linearGradient>
<clipPath id="clip0">
<rect width="1440" height="820" fill="white"/>
</clipPath>
</defs>
</svg>
