<svg width="360" height="76" viewBox="0 0 360 76" fill="none" xmlns="http://www.w3.org/2000/svg">
<path d="M36.7338 5.69232H53.9765L39.6321 76H22.3894L36.7338 5.69232Z" fill="white"/>
<path d="M62.0337 5.69232H79.2764L68.1001 60.7798H50.8533L62.0337 5.69232Z" fill="white"/>
<path d="M11.1804 8.69232H28.4231L17.2468 63.7798H0L11.1804 8.69232Z" fill="white"/>
<path d="M96.7614 55C104.739 55 109.801 50.0909 109.801 41.9091C109.801 33.7273 104.739 28.8182 96.6591 28.8182H86.6875V55H96.7614ZM93.7955 48.9659V34.8523H96.3011C100.392 34.8523 102.642 36.4375 102.642 41.9091C102.642 47.3807 100.392 48.9659 96.5057 48.9659H93.7955ZM113.09 55H131.908V49.2727H120.198V44.7727H130.988V39.0455H120.198V34.5455H131.959V28.8182H113.09V55ZM142.643 28.8182H134.615L143.257 55H152.973L161.615 28.8182H153.587L148.217 47.2784H148.013L142.643 28.8182ZM164.594 55.4091C166.473 55.4091 168.148 53.8239 168.173 51.8295C168.148 49.8864 166.473 48.3011 164.594 48.3011C162.612 48.3011 160.989 49.8864 161.014 51.8295C160.989 53.8239 162.612 55.4091 164.594 55.4091ZM178.707 55L180.216 49.9886H188.858L190.366 55H198.037L189.395 28.8182H179.679L171.037 55H178.707ZM181.827 44.6705L184.435 36.0284H184.639L187.247 44.6705H181.827ZM223.771 38.6364C223.209 32.142 218.453 28.4602 211.857 28.4602C204.8 28.4602 199.226 33.1648 199.226 41.9091C199.226 50.6151 204.646 55.358 211.857 55.358C219.527 55.358 223.413 50.0398 223.771 45.5909L216.561 45.5398C216.203 47.777 214.618 49.1705 212.01 49.1705C208.545 49.1705 206.538 46.7159 206.538 41.9091C206.538 37.358 208.482 34.6477 212.061 34.6477C214.797 34.6477 216.357 36.2585 216.561 38.6364H223.771ZM226.28 34.5455H234.155V55H241.161V34.5455H249.036V28.8182H226.28V34.5455ZM258.819 28.8182H251.711V55H258.819V28.8182ZM269.347 28.8182H261.318L269.96 55H279.676L288.318 28.8182H280.29L274.92 47.2784H274.716L269.347 28.8182ZM297.948 28.8182H290.84V55H297.948V28.8182ZM300.6 34.5455H308.475V55H315.481V34.5455H323.356V28.8182H300.6V34.5455ZM324.957 28.8182L334.571 46.767V55H341.628V46.767L351.241 28.8182H343.315L338.202 39.4545H337.997L332.884 28.8182H324.957Z" fill="#FEFBFB"/>
</svg>
